<svg width="19" height="21" viewBox="0 0 19 21" fill="none" xmlns="http://www.w3.org/2000/svg">
<path d="M17.6698 7.67627L1.11035 7.9128L1.78098 19.228H16.5262L17.6698 7.67627Z" fill="#C31246"/>
<path d="M16.2012 19.2278H2.6198C2.41138 19.2291 2.20989 19.1531 2.0542 19.0145C1.89851 18.8759 1.79968 18.6846 1.77675 18.4775L1.11076 8.48322C1.10725 8.37156 1.12664 8.26036 1.16777 8.15649C1.20889 8.05262 1.27086 7.95827 1.34986 7.87927C1.42885 7.80028 1.5232 7.73831 1.62707 7.69719C1.73094 7.65606 1.84214 7.63666 1.9538 7.64017H17.0063C17.2299 7.64017 17.4443 7.72899 17.6024 7.8871C17.7605 8.0452 17.8494 8.25963 17.8494 8.48322L17.0443 18.4859C17.0194 18.6915 16.9197 18.8808 16.7642 19.0176C16.6087 19.1545 16.4083 19.2293 16.2012 19.2278V19.2278Z" stroke="#FFEDF2" stroke-width="2" stroke-linecap="round" stroke-linejoin="round"/>
<path d="M5.26294 10.376V5.73926C5.26294 4.62132 5.70705 3.54916 6.49756 2.75865C7.28806 1.96815 8.36021 1.52405 9.47815 1.52405C10.5961 1.52405 11.6683 1.96815 12.4588 2.75865C13.2493 3.54916 13.6934 4.62132 13.6934 5.73926V10.376" stroke="#FFEDF2" stroke-width="2" stroke-linecap="round" stroke-linejoin="round"/>
</svg>
