<svg width="19" height="21" viewBox="0 0 19 21" fill="none" xmlns="http://www.w3.org/2000/svg">
<path d="M16.194 19.5003H2.61907C2.41076 19.5016 2.20936 19.4256 2.05375 19.2871C1.89814 19.1487 1.79935 18.9574 1.77644 18.7504L1.11076 8.76089C1.10725 8.64928 1.12664 8.53814 1.16774 8.43432C1.20885 8.3305 1.27078 8.23619 1.34974 8.15724C1.4287 8.07828 1.523 8.01634 1.62682 7.97524C1.73064 7.93413 1.84179 7.91474 1.95339 7.91825H16.9987C17.2222 7.91825 17.4365 8.00703 17.5946 8.16505C17.7526 8.32308 17.8414 8.53741 17.8414 8.76089L17.0366 18.7588C17.0118 18.9643 16.9122 19.1535 16.7568 19.2903C16.6013 19.427 16.401 19.5018 16.194 19.5003V19.5003Z" stroke="#FFEDF2" stroke-width="2" stroke-linecap="round" stroke-linejoin="round"/>
<path d="M5.26074 10.6526V6.01813C5.26074 4.90072 5.70464 3.82907 6.49477 3.03895C7.2849 2.24882 8.35653 1.80493 9.47394 1.80493C10.5913 1.80493 11.663 2.24882 12.4531 3.03895C13.2433 3.82907 13.6871 4.90072 13.6871 6.01813V10.6526" stroke="#FFEDF2" stroke-width="2" stroke-linecap="round" stroke-linejoin="round"/>
</svg>
