<svg width="23" height="25" viewBox="0 0 23 25" fill="none" xmlns="http://www.w3.org/2000/svg">
<path d="M19.9588 23.3229H3.45002C3.19669 23.3245 2.95176 23.2321 2.76252 23.0637C2.57328 22.8953 2.45313 22.6627 2.42527 22.4109L1.61573 10.2625C1.61146 10.1268 1.63504 9.9916 1.68503 9.86534C1.73501 9.73908 1.81034 9.6244 1.90636 9.52838C2.00238 9.43236 2.11707 9.35703 2.24333 9.30704C2.36958 9.25705 2.50475 9.23348 2.64048 9.23774H20.9374C21.2092 9.23774 21.4698 9.34571 21.662 9.53788C21.8542 9.73006 21.9622 9.99071 21.9622 10.2625L20.9835 22.4212C20.9533 22.6711 20.8322 22.9012 20.6431 23.0675C20.4541 23.2338 20.2105 23.3248 19.9588 23.3229V23.3229Z" stroke="#C31246" stroke-width="2" stroke-linecap="round" stroke-linejoin="round"/>
<path d="M6.66211 12.5631V6.92698C6.66211 5.56808 7.20194 4.26482 8.16284 3.30393C9.12373 2.34304 10.427 1.80322 11.7859 1.80322C13.1448 1.80322 14.448 2.34304 15.4089 3.30393C16.3698 4.26482 16.9096 5.56808 16.9096 6.92698V12.5631" stroke="#C31246" stroke-width="2" stroke-linecap="round" stroke-linejoin="round"/>
</svg>
