<svg width="25" height="27" viewBox="0 0 25 27" fill="none" xmlns="http://www.w3.org/2000/svg">
<path d="M21.2994 25.4496H3.05678C2.77684 25.4513 2.50619 25.3493 2.29708 25.1631C2.08796 24.977 1.9552 24.7201 1.92441 24.4418L1.02984 11.0175C1.02512 10.8675 1.05118 10.7182 1.10642 10.5786C1.16166 10.4391 1.24489 10.3124 1.351 10.2063C1.4571 10.1002 1.58384 10.0169 1.72335 9.9617C1.86287 9.90647 2.01223 9.88041 2.16222 9.88513H22.3808C22.6811 9.88513 22.9691 10.0044 23.1815 10.2168C23.3939 10.4292 23.5132 10.7172 23.5132 11.0175L22.4317 24.4531C22.3984 24.7293 22.2645 24.9836 22.0556 25.1674C21.8468 25.3511 21.5776 25.4516 21.2994 25.4496V25.4496Z" stroke="white" stroke-width="2" stroke-linecap="round" stroke-linejoin="round"/>
<path d="M6.60742 13.5599V7.33186C6.60742 5.83024 7.20395 4.39011 8.26576 3.3283C9.32757 2.2665 10.7677 1.66998 12.2693 1.66998C13.7709 1.66998 15.2111 2.2665 16.2729 3.3283C17.3347 4.39011 17.9312 5.83024 17.9312 7.33186V13.5599" stroke="white" stroke-width="2" stroke-linecap="round" stroke-linejoin="round"/>
</svg>
