<svg width="13" height="14" viewBox="0 0 13 14" fill="none" xmlns="http://www.w3.org/2000/svg">
<path d="M7.15332 3.28522C7.15332 2.99182 6.91547 2.75397 6.62207 2.75397C6.32866 2.75397 6.09082 2.99182 6.09082 3.28522V6.82688C6.09082 7.01005 6.18518 7.1803 6.3405 7.27738L8.4655 8.60551C8.71431 8.76101 9.04206 8.68537 9.19756 8.43657C9.35307 8.18777 9.27743 7.86001 9.02863 7.70451L7.15332 6.53244V3.28522Z" fill="#C31246"/>
<path fill-rule="evenodd" clip-rule="evenodd" d="M6.62207 0.628967C3.19905 0.628967 0.424149 3.40387 0.424149 6.82688C0.424149 10.2499 3.19905 13.0248 6.62207 13.0248C10.0451 13.0248 12.82 10.2499 12.82 6.82688C12.82 3.40387 10.0451 0.628967 6.62207 0.628967ZM1.48665 6.82688C1.48665 3.99067 3.78585 1.69147 6.62207 1.69147C9.45828 1.69147 11.7575 3.99067 11.7575 6.82688C11.7575 9.6631 9.45828 11.9623 6.62207 11.9623C3.78585 11.9623 1.48665 9.6631 1.48665 6.82688Z" fill="#C31246"/>
</svg>
