<svg width="28" height="22" viewBox="0 0 28 22" fill="none" xmlns="http://www.w3.org/2000/svg">
<path d="M19.3184 15.5419H2.58008L5.11619 1.37598H21.8545L19.3184 15.5419Z" stroke="#FFEDF2" stroke-width="2" stroke-linecap="round" stroke-linejoin="round"/>
<path d="M25.405 15.5417H19.3184L20.84 6.94094H23.6297C24.1328 6.93818 24.6293 7.05447 25.0785 7.28027C25.5277 7.50607 25.9168 7.83494 26.2138 8.23985C26.5109 8.64477 26.7074 9.11419 26.7872 9.60956C26.867 10.1049 26.8279 10.6122 26.6731 11.0895L25.405 15.5417Z" stroke="#FFEDF2" stroke-width="2" stroke-linecap="round" stroke-linejoin="round"/>
<path d="M7.35327 20.0193C8.02838 20.0193 8.57567 19.4734 8.57567 18.8C8.57567 18.1266 8.02838 17.5807 7.35327 17.5807C6.67815 17.5807 6.13086 18.1266 6.13086 18.8C6.13086 19.4734 6.67815 20.0193 7.35327 20.0193Z" stroke="#FFEDF2" stroke-width="2" stroke-linecap="round" stroke-linejoin="round"/>
<path d="M17.8474 20.0193C18.5225 20.0193 19.0698 19.4734 19.0698 18.8C19.0698 18.1266 18.5225 17.5807 17.8474 17.5807C17.1723 17.5807 16.625 18.1266 16.625 18.8C16.625 19.4734 17.1723 20.0193 17.8474 20.0193Z" stroke="#FFEDF2" stroke-width="2" stroke-linecap="round" stroke-linejoin="round"/>
<path d="M1.56543 6.94089H9.17377" stroke="#FFEDF2" stroke-width="2" stroke-linecap="round" stroke-linejoin="round"/>
</svg>
