<svg width="19" height="17" viewBox="0 0 19 17" fill="none" xmlns="http://www.w3.org/2000/svg">
<path d="M15.5118 2.29066C14.6791 1.76914 13.6925 1.54927 12.7171 1.66782C11.7417 1.78638 10.8365 2.23617 10.1529 2.942L9.15444 3.92487H9.13104L8.14427 2.942C7.46067 2.23617 6.55551 1.78638 5.58009 1.66782C4.60467 1.54927 3.61811 1.76914 2.78533 2.29066C2.29865 2.60583 1.88837 3.02555 1.58434 3.51926C1.2803 4.01298 1.09016 4.56827 1.02777 5.14473C0.965382 5.72118 1.0323 6.30429 1.22367 6.85162C1.41503 7.39895 1.72602 7.89674 2.134 8.30874L9.10374 15.6685L9.24414 15.5281L9.28706 15.571L16.1749 8.30874C16.5823 7.89594 16.8925 7.39747 17.083 6.84963C17.2734 6.3018 17.3392 5.71839 17.2757 5.14188C17.2122 4.56538 17.0209 4.01031 16.7158 3.51707C16.4106 3.02384 15.9993 2.60486 15.5118 2.29066V2.29066Z" stroke="#FFEDF2" stroke-width="2" stroke-linecap="round" stroke-linejoin="round"/>
</svg>
