<svg width="26" height="23" viewBox="0 0 26 23" fill="none" xmlns="http://www.w3.org/2000/svg">
<path d="M21.9308 2.68798C20.7436 1.94449 19.3371 1.63105 17.9464 1.80006C16.5558 1.96907 15.2653 2.61029 14.2908 3.61651L12.8673 5.01768H12.8339L11.4271 3.61651C10.4525 2.61029 9.16205 1.96907 7.77142 1.80006C6.38079 1.63105 4.97428 1.94449 3.78702 2.68798C3.09317 3.13728 2.50824 3.73562 2.07479 4.43945C1.64133 5.14329 1.37026 5.93491 1.28131 6.7567C1.19236 7.57849 1.28777 8.40975 1.56059 9.19003C1.83341 9.9703 2.27678 10.6799 2.85843 11.2673L12.795 21.7593L12.9952 21.5591L13.0563 21.6203L22.8761 11.2673C23.457 10.6788 23.8992 9.96818 24.1707 9.18719C24.4422 8.4062 24.5361 7.5745 24.4456 6.75264C24.355 5.93079 24.0823 5.13948 23.6473 4.43633C23.2123 3.73318 22.6259 3.1359 21.9308 2.68798V2.68798Z" stroke="#190A02" stroke-width="2" stroke-linecap="round" stroke-linejoin="round"/>
</svg>
