<svg width="19" height="17" viewBox="0 0 19 17" fill="none" xmlns="http://www.w3.org/2000/svg">
<path d="M15.5118 2.01869C14.6791 1.49717 13.6925 1.2773 12.7171 1.39585C11.7417 1.51441 10.8365 1.9642 10.1529 2.67002L9.15444 3.65289H9.13104L8.14427 2.67002C7.46067 1.9642 6.55551 1.51441 5.58009 1.39585C4.60467 1.2773 3.61811 1.49717 2.78533 2.01869C2.29865 2.33386 1.88837 2.75357 1.58434 3.24729C1.2803 3.741 1.09016 4.2963 1.02777 4.87276C0.965382 5.44921 1.0323 6.03232 1.22367 6.57965C1.41503 7.12698 1.72602 7.62476 2.134 8.03677L9.10374 15.3965L9.24414 15.2561L9.28706 15.299L16.1749 8.03677C16.5823 7.62397 16.8925 7.1255 17.083 6.57766C17.2734 6.02983 17.3392 5.44641 17.2757 4.86991C17.2122 4.29341 17.0209 3.73833 16.7158 3.2451C16.4106 2.75186 15.9993 2.33289 15.5118 2.01869Z" fill="#C31246" stroke="#FFEDF2" stroke-width="2" stroke-linecap="round" stroke-linejoin="round"/>
</svg>
