<svg width="18" height="18" viewBox="0 0 18 18" fill="none" xmlns="http://www.w3.org/2000/svg">
<path fill-rule="evenodd" clip-rule="evenodd" d="M5.25748 7.41026C5.25748 5.55205 6.76385 4.04567 8.62206 4.04567C10.4803 4.04567 11.9866 5.55205 11.9866 7.41026C11.9866 9.26847 10.4803 10.7748 8.62206 10.7748C6.76385 10.7748 5.25748 9.26847 5.25748 7.41026ZM8.62206 5.10817C7.35066 5.10817 6.31998 6.13885 6.31998 7.41026C6.31998 8.68166 7.35066 9.71234 8.62206 9.71234C9.89347 9.71234 10.9241 8.68166 10.9241 7.41026C10.9241 6.13885 9.89347 5.10817 8.62206 5.10817Z" fill="#C31246"/>
<path fill-rule="evenodd" clip-rule="evenodd" d="M2.61849 6.60053C2.86947 3.55568 5.41391 1.21234 8.46909 1.21234H8.77504C11.8302 1.21234 14.3747 3.55568 14.6256 6.60053C14.7605 8.23617 14.2552 9.86031 13.2163 11.1308L9.82126 15.2829C9.20146 16.0409 8.04267 16.0409 7.42287 15.2829L4.02779 11.1308C2.9889 9.86031 2.48366 8.23617 2.61849 6.60053ZM8.46909 2.27484C5.96687 2.27484 3.88295 4.19405 3.6774 6.68781C3.56519 8.04912 3.98568 9.40084 4.85032 10.4583L8.2454 14.6104C8.44008 14.8484 8.80405 14.8484 8.99872 14.6104L12.3938 10.4583C13.2584 9.40084 13.6789 8.04912 13.5667 6.68781C13.3612 4.19405 11.2773 2.27484 8.77504 2.27484H8.46909Z" fill="#C31246"/>
</svg>
