<svg width="15" height="12" viewBox="0 0 15 12" fill="none" xmlns="http://www.w3.org/2000/svg">
<path fill-rule="evenodd" clip-rule="evenodd" d="M1.10802 3.59191C0.909589 5.54408 0.918435 7.79557 1.19456 9.73981C1.34735 10.8156 2.17657 11.6403 3.20016 11.7346L4.26991 11.833C6.50048 12.0383 8.74368 12.0383 10.9743 11.833L12.044 11.7346C13.0676 11.6403 13.8968 10.8156 14.0496 9.73981C14.3257 7.79556 14.3346 5.5442 14.1361 3.59202C14.1105 3.3657 14.0816 3.13969 14.0496 2.91405C13.8968 1.83826 13.0676 1.01352 12.044 0.91931L10.9742 0.820849C8.74367 0.615544 6.50048 0.615544 4.26991 0.820849L3.20016 0.919311C2.17657 1.01352 1.34735 1.83826 1.19456 2.91405C1.16252 3.13965 1.13367 3.36563 1.10802 3.59191ZM4.36192 1.94162C6.53127 1.74195 8.71289 1.74195 10.8822 1.94162L11.952 2.04008C12.4863 2.08926 12.9192 2.51978 12.9989 3.08134C13.0072 3.13966 13.0153 3.19801 13.0231 3.25638L9.08404 5.57346C8.17483 6.10829 7.06928 6.10829 6.16007 5.57346L2.22107 3.2564C2.2289 3.19802 2.23696 3.13967 2.24525 3.08134C2.325 2.51978 2.75786 2.08926 3.29217 2.04008L4.36192 1.94162ZM13.1531 4.46685C13.2905 6.16766 13.2391 7.8813 12.9989 9.57252C12.9192 10.1341 12.4863 10.5646 11.952 10.6138L10.8822 10.7122C8.71289 10.9119 6.53127 10.9119 4.36192 10.7122L3.29217 10.6138C2.75786 10.5646 2.325 10.1341 2.24525 9.57252C2.00506 7.88131 1.95366 6.16768 2.09105 4.46688L5.64407 6.55689C6.87418 7.28048 8.36993 7.28048 9.60004 6.55689L13.1531 4.46685Z" fill="#C31246"/>
</svg>
