<svg width="19" height="19" viewBox="0 0 19 19" fill="none" xmlns="http://www.w3.org/2000/svg">
<path fill-rule="evenodd" clip-rule="evenodd" d="M4.50227 7.71915C5.84276 10.6381 8.22812 12.9587 11.1934 14.2161L11.2028 14.2201L11.7757 14.4755C12.5051 14.8005 13.3626 14.5696 13.8303 13.9223L14.786 12.5995C14.8444 12.5187 14.8294 12.4064 14.7518 12.3438L13.0832 10.9977C13.0003 10.9308 12.8783 10.9463 12.8149 11.032L12.1655 11.9083C12.0078 12.1211 11.7229 12.195 11.4816 12.0858C9.26432 11.0824 7.48253 9.30057 6.47909 7.08327C6.36988 6.84195 6.44382 6.55713 6.65664 6.39942L7.53292 5.75003C7.61855 5.68657 7.63413 5.5646 7.56721 5.48166L6.22093 3.81287C6.15836 3.73531 6.04605 3.72025 5.96525 3.77858L4.63528 4.73869C3.98369 5.20909 3.75422 6.07372 4.08682 6.80531L4.50183 7.71818C4.50197 7.7185 4.50212 7.71883 4.50227 7.71915ZM10.7495 15.2499C7.5275 13.8822 4.93597 11.3599 3.47944 8.1876L3.47856 8.18569L3.06269 7.2709C2.50836 6.05159 2.89081 4.61053 3.97679 3.82655L5.30676 2.86643C5.87235 2.45812 6.65852 2.56358 7.09652 3.1065L8.4428 4.77528C8.91122 5.35591 8.80212 6.2097 8.20275 6.65388L7.70062 7.026C8.54881 8.67179 9.89309 10.0161 11.5389 10.8643L11.911 10.3621C12.3552 9.76276 13.209 9.65366 13.7896 10.1221L15.4582 11.4682C16.0013 11.9063 16.1066 12.6928 15.6979 13.2584L14.7421 14.5812C13.9626 15.66 12.5336 16.0448 11.3178 15.5031L10.7495 15.2499Z" fill="#C31246"/>
</svg>
