<svg width="18" height="20" viewBox="0 0 18 20" fill="none" xmlns="http://www.w3.org/2000/svg">
<path d="M1.5 18.619C1.91319 16.9619 2.85969 15.4866 4.19372 14.4203C5.52775 13.3539 7.17534 12.7557 8.88276 12.7178C10.5902 12.6798 12.2627 13.2042 13.6428 14.2102C15.0229 15.2162 16.0341 16.6479 16.5205 18.285" stroke="#FFEDF2" stroke-width="2" stroke-linecap="round" stroke-linejoin="round"/>
<path d="M9.38505 9.45524H8.63158C7.68751 9.45524 6.7821 9.08021 6.11454 8.41265C5.44698 7.74509 5.07195 6.83968 5.07195 5.89561L5.07195 5.56979C5.07195 4.54687 5.4783 3.56582 6.20162 2.8425C6.92494 2.11918 7.90597 1.71283 8.92889 1.71283C9.45694 1.7123 9.97991 1.81592 10.4679 2.01774C10.9558 2.21957 11.3992 2.51565 11.7726 2.88903C12.1459 3.26242 12.442 3.70577 12.6438 4.19373C12.8457 4.68168 12.9493 5.20464 12.9488 5.73269V5.89561C12.9488 6.83968 12.5737 7.74509 11.9062 8.41265C11.2386 9.08021 10.3332 9.45524 9.38912 9.45524H9.38505Z" stroke="#FFEDF2" stroke-width="2" stroke-linecap="round" stroke-linejoin="round"/>
</svg>
