<svg width="40" height="40" viewBox="0 0 40 40" fill="none" xmlns="http://www.w3.org/2000/svg">
<path d="M17.3783 12.1019C18.0513 12.1019 18.597 12.6475 18.597 13.3206V16.1644H21.4408C22.1138 16.1644 22.6595 16.71 22.6595 17.3831C22.6595 18.0562 22.1138 18.6019 21.4408 18.6019H18.597V21.4456C18.597 22.1187 18.0513 22.6644 17.3783 22.6644C16.7052 22.6644 16.1595 22.1187 16.1595 21.4456V18.6019H13.3158C12.6427 18.6019 12.097 18.0562 12.097 17.3831C12.097 16.71 12.6427 16.1644 13.3158 16.1644H16.1595V13.3206C16.1595 12.6475 16.7052 12.1019 17.3783 12.1019Z" fill="#190A02"/>
<path fill-rule="evenodd" clip-rule="evenodd" d="M9.57595 25.093C13.5682 29.0853 19.8723 29.3567 24.179 25.9074L32.5569 34.2853C33.0329 34.7613 33.8045 34.7613 34.2805 34.2853C34.7564 33.8094 34.7564 33.0377 34.2805 32.5618L25.9026 24.1839C29.3519 19.8772 29.0804 13.5731 25.0881 9.58084C20.8045 5.29727 13.8595 5.29727 9.57595 9.58084C5.29239 13.8644 5.29239 20.8094 9.57595 25.093ZM11.2995 11.3044C7.96787 14.6361 7.96787 20.0378 11.2995 23.3694C14.6287 26.6986 20.025 26.7011 23.3572 23.3767L23.3645 23.3694L23.3719 23.3621C26.6962 20.0298 26.6938 14.6336 23.3645 11.3044C20.0329 7.97275 14.6312 7.97275 11.2995 11.3044Z" fill="#190A02"/>
</svg>
